<?xml version="1.0" standalone="no"?>
<!DOCTYPE svg PUBLIC "-//W3C//DTD SVG 20010904//EN"
 "http://www.w3.org/TR/2001/REC-SVG-20010904/DTD/svg10.dtd">
<svg version="1.0" xmlns="http://www.w3.org/2000/svg"
 width="3543.000000pt" height="3543.000000pt" viewBox="0 0 3543.000000 3543.000000"
 preserveAspectRatio="xMidYMid meet">
<metadata>
Created by potrace 1.14, written by Peter Selinger 2001-2017
</metadata>
<g transform="translate(0.000000,3543.000000) scale(0.100000,-0.100000)"
fill="#000000" stroke="none">
<path d="M17220 35424 c-539 -21 -817 -39 -1195 -74 -1984 -188 -3928 -712
-5734 -1547 -3639 -1682 -6624 -4574 -8416 -8153 -1052 -2099 -1662 -4324
-1829 -6665 -34 -466 -40 -676 -40 -1270 0 -701 16 -1073 74 -1690 433 -4582
2650 -8828 6171 -11815 1357 -1151 2872 -2090 4495 -2786 1805 -773 3722
-1237 5699 -1378 466 -34 676 -40 1270 -40 594 0 804 6 1270 40 2795 199 5466
1044 7860 2486 2873 1730 5213 4258 6710 7248 1052 2099 1662 4323 1829 6665
34 466 40 676 40 1270 0 701 -16 1073 -74 1690 -433 4582 -2650 8828 -6171
11815 -2075 1761 -4507 3015 -7124 3673 -1138 287 -2249 452 -3485 517 -192
11 -1185 21 -1350 14z m-8054 -6484 c1021 -1301 1860 -2365 1865 -2365 4 0
664 749 1465 1665 801 916 1468 1678 1483 1693 l28 28 428 -555 c235 -306 431
-556 435 -556 4 0 157 204 341 452 l334 453 17 -75 c67 -286 1588 -6583 1591
-6587 3 -2 683 462 1512 1032 829 570 1510 1034 1512 1031 4 -4 140 -1249 199
-1823 5 -48 11 -63 23 -63 9 -1 1491 173 3294 386 1802 213 3280 385 3283 382
3 -4 -1059 -2322 -2361 -5153 -1301 -2831 -2364 -5149 -2361 -5152 2 -3 924
-335 2048 -739 1124 -404 2050 -738 2058 -742 19 -12 460 -795 452 -803 -4 -3
-536 -252 -1182 -552 -646 -300 -1627 -755 -2180 -1012 -553 -257 -1009 -471
-1013 -475 -5 -4 340 -688 767 -1519 427 -831 776 -1516 776 -1521 0 -6 -189
-388 -420 -849 l-419 -840 -148 69 c-1928 903 -2909 1358 -2915 1352 -4 -4
-651 -1245 -1438 -2757 -787 -1512 -1432 -2751 -1433 -2752 -4 -3 -439 17
-662 32 -4780 318 -9203 2635 -12216 6400 -2076 2593 -3348 5729 -3663 9025
-56 589 -76 1015 -76 1665 0 650 20 1076 76 1665 422 4424 2558 8501 5976
11407 244 207 642 523 656 521 7 -2 848 -1067 1868 -2368z"/>
<path d="M6975 18514 c-534 -43 -962 -170 -1310 -389 -601 -378 -904 -910
-1012 -1778 -15 -118 -17 -366 -20 -2322 -4 -2232 -3 -2359 33 -2635 106 -815
440 -1363 1052 -1727 300 -178 693 -296 1135 -339 l67 -6 0 -532 c0 -599 0
-599 70 -679 23 -26 66 -58 98 -74 50 -24 69 -28 147 -28 76 0 98 4 145 26
102 49 153 120 170 236 5 37 10 289 10 560 l0 491 68 7 c577 57 1035 236 1413
553 475 399 725 975 779 1803 8 113 10 849 7 2349 -4 2340 -2 2249 -52 2542
-91 530 -292 950 -599 1253 -378 372 -873 594 -1501 671 -124 15 -587 27 -700
18z m633 -778 c397 -59 689 -193 917 -421 239 -239 377 -541 448 -980 l22
-140 0 -2280 c0 -2529 4 -2350 -65 -2640 -117 -492 -382 -840 -782 -1030 -156
-74 -323 -122 -550 -160 l-38 -6 0 468 c0 257 -5 499 -10 537 -26 177 -138
256 -345 243 -102 -6 -174 -35 -221 -90 -63 -75 -64 -84 -64 -649 l0 -509 -47
6 c-404 57 -714 197 -944 427 -235 235 -380 562 -446 1003 -17 113 -18 259
-18 2400 l0 2280 22 140 c71 439 209 741 448 980 262 262 576 388 1090 439 86
9 485 -4 583 -18z"/>
<path d="M11623 15275 c-29 -8 -72 -24 -95 -36 -59 -30 -143 -113 -170 -168
l-23 -46 0 -1775 c0 -1665 1 -1783 18 -1910 72 -531 307 -977 728 -1385 318
-307 662 -502 1060 -599 395 -96 860 -85 1239 29 405 121 793 374 1095 712
347 389 535 793 597 1283 10 84 13 469 13 1885 l0 1780 -23 47 c-79 159 -325
239 -538 174 -66 -20 -164 -84 -199 -130 -57 -75 -54 34 -55 -1865 0 -1527 -2
-1767 -15 -1857 -72 -482 -423 -968 -866 -1198 -222 -116 -410 -160 -679 -160
-202 0 -307 16 -469 70 -219 73 -415 197 -597 379 -239 239 -394 513 -467 830
-21 89 -21 109 -27 1895 l-5 1805 -22 40 c-25 48 -101 121 -163 158 -93 54
-229 71 -337 42z"/>
</g>
</svg>
